<svg width="200" height="200" xmlns="http://www.w3.org/2000/svg" xmlns:xlink="http://www.w3.org/1999/xlink" overflow="hidden"><defs><clipPath id="clip0"><rect x="0" y="0" width="200" height="200"/></clipPath><clipPath id="clip1"><rect x="27" y="9" width="754" height="182"/></clipPath><clipPath id="clip2"><rect x="27" y="9" width="754" height="183"/></clipPath><clipPath id="clip3"><rect x="27" y="9" width="754" height="183"/></clipPath></defs><g clip-path="url(#clip0)"><rect x="0" y="0" width="200" height="200" fill="#FFFFFF"/><g clip-path="url(#clip1)"><g clip-path="url(#clip2)"><g clip-path="url(#clip3)"><path d="M149.203 121.082C148.44 118.29 140.383 119.476 133.725 118.867 127.703 118.337 119.948 117.214 110.62 113.971 101.911 110.905 93.4891 107.391 86.1476 103.393 86.1476 103.393 83.1437 101.803 82.8257 101.628 82.2379 101.258 81.7616 100.986 81.1271 100.617 80.7925 100.392 80.2197 100.052 79.8399 99.894 79.3139 99.6535 78.9808 99.3794 78.5211 99.1069 78.075 98.8192 77.439 98.5147 77.0109 98.2406 76.3116 97.8067 75.8986 97.5022 75.2626 97.0196 74.8812 96.7318 74.6748 96.6344 74.1503 96.3467 73.8322 96.1381 73.2761 95.8153 72.9746 95.6235 72.3868 95.2383 72.0206 94.9018 71.4328 94.5167 71.0515 94.2274 70.7967 94.0675 70.3687 93.7935 69.9226 93.5529 69.5096 93.1997 69.1298 92.9272 68.9218 92.7658 68.652 92.5907 68.4455 92.3806 68.016 91.965 67.5879 91.5798 67.1267 91.2418 66.7288 90.9206 66.3324 90.5186 65.9029 90.2294 65.6647 90.0223 65.2035 89.6371 64.9503 89.4438 64.2977 88.9779 63.8847 88.6095 63.217 88.1436 62.8041 87.8223 62.4393 87.3884 62.0263 87.052 61.5335 86.7003 61.1039 86.2968 60.5945 85.9771 60.2931 85.7198 59.9283 85.4473 59.6902 85.1748 59.3556 84.8048 59.0858 84.549 58.7195 84.1791 58.4663 83.9066 58.0202 83.5853 57.7504 83.3128 57.3224 82.7982 56.7496 82.2684 56.2251 81.836 55.892 81.5147 55.7956 81.3701 55.669 81.2103 55.574 81.0641 55.4308 80.9042 55.2078 80.6637L54.7315 80.1826C54.6049 80.0699 54.4768 79.9573 54.1271 79.604 54.0171 79.4929 53.8091 79.2036 53.6192 78.9463 53.4609 78.7378 53.3012 78.5124 53.2213 78.3998 52.8716 78.0313 52.65 77.8227 52.4436 77.5655 52.2838 77.3888 52.1105 77.197 51.8874 77.0037 51.7608 76.8605 51.6493 76.6992 51.5694 76.5378 51.4744 76.3779 51.3629 76.2165 51.2514 76.0887 51.0449 75.8481 50.9017 75.9455 50.855 75.976 50.7434 76.0887 50.6952 76.282 50.8384 76.5713 50.9967 76.891 51.2514 77.2457 51.4111 77.4528 51.4262 77.5015 51.4744 77.5502 51.4895 77.5655 51.5377 77.6781 51.601 77.774 51.6493 77.8867 51.7442 78.0313 51.8392 78.1912 51.9191 78.3526 52.1888 78.689 52.4752 78.9463 52.6983 79.2189L52.9681 79.4929C53.1263 79.6847 53.2861 79.8781 53.4127 80.0699 53.5559 80.2937 53.6991 80.5191 53.889 80.7276 53.9854 80.7931 54.0487 80.889 54.1437 81.0017 54.207 81.1128 54.3034 81.2255 54.3984 81.3534L54.843 81.804C55.0812 82.0598 55.351 82.3003 55.574 82.5104 55.7489 82.6703 55.9553 82.8789 56.1618 83.0875 56.6381 83.6645 57.1792 84.2598 57.6087 84.8216 57.8619 85.1428 58.3066 85.3818 58.6095 85.6071 58.9743 85.8644 59.1973 86.2496 59.452 86.5709 59.657 86.8114 60.0866 87.1799 60.2614 87.4539 60.7543 88.0797 61.1039 88.4481 61.755 88.8987 62.1364 89.2032 62.4393 89.4438 62.7573 89.8625 62.9307 90.0863 63.4868 90.6481 63.7099 90.8886 64.2344 91.5798 64.4725 92.236 64.3926 92.236 64.0279 92.3334 63.1371 91.5311 62.6141 91.2098 62.168 90.9206 62.1047 90.8079 61.7083 90.4882 61.5968 90.3908 60.9608 89.9249 60.7392 89.6524 60.5628 89.4758 60.0866 88.9779 59.9283 88.7709 59.1973 87.8223 58.9275 87.7584 58.0684 86.9408 57.4324 86.3151 56.6863 85.7685 56.0669 85.19 55.892 85.0301 55.7006 84.8216 55.5258 84.6282 55.351 84.4196 55.0962 84.2263 54.9229 84.0512 54.62 83.6812 54.2552 82.99 53.9206 82.719 53.5559 82.445 53.3012 82.2212 52.9515 81.9152 52.8083 81.8512 52.6983 81.6898 52.5867 81.5787 52.3953 81.466 52.1888 81.3062 52.0622 81.1128 51.6493 80.615 51.2514 80.0699 50.8384 79.5401 50.6636 79.2676 50.3621 79.0575 50.1873 78.8017 49.7743 78.2399 49.4397 77.6461 49.0267 77.0844 48.454 76.3292 47.6446 75.7842 47.0568 75.029 46.5157 74.2586 46.151 73.3436 45.6265 72.5413 45.4034 72.1729 45.0387 71.8988 44.784 71.5943 44.6257 71.3857 44.5609 71.1604 44.4192 70.9366 44.1329 70.5194 43.8148 70.0688 43.4968 69.6364 43.1321 69.1066 42.8774 68.4641 42.496 67.8871 42.4327 67.7912 42.2896 67.4364 42.0981 67.1152 41.8449 66.8107 41.6369 66.491 41.3837 66.0738 41.1456 65.6704 41.0024 65.3979 40.8276 65.0934 40.6211 64.8041 40.5096 64.5316 40.3664 64.323 40.2548 64.1296 39.985 63.7612 39.8901 63.5998 39.5238 63.0867 39.444 62.8142 39.0792 62.2996 38.8577 62.0271 38.618 61.7713 38.4432 61.852 38.2849 61.9632 38.3316 62.1398 38.3799 62.2844 38.508 62.7183 38.508 62.6544 38.6979 62.9741 38.9843 63.4887 39.0792 63.7444 39.3972 64.2103 39.5238 64.4509 39.7786 64.9807 39.985 65.2867 40.1915 65.576 40.3664 65.8957 40.5096 66.1515 40.6362 66.4255 40.8592 67.0848 41.0974 67.3558 41.2556 67.5491 41.4636 67.983 41.5902 68.2708 41.9082 68.866 42.273 69.3472 42.591 69.813 42.7975 70.1982 43.004 70.6154 43.1954 70.9838 43.6084 71.6263 44.1012 72.1881 44.5142 72.8306L45.2452 74.1779C45.4833 74.5479 45.833 74.8539 46.0545 75.2391 46.3575 75.6715 46.5157 76.1693 46.8021 76.6017 47.0086 76.9717 47.3266 77.2777 47.5497 77.6461 47.9627 78.2399 48.3274 78.8017 48.7253 79.3635 48.9634 79.6847 49.2498 79.9253 49.4714 80.2465 49.7743 80.6789 50.0275 81.16 50.3621 81.53 50.7434 81.8999 50.8384 82.1253 51.1564 82.4617 51.6327 83.0235 52.7134 84.6282 52.5536 84.6282 51.8874 84.7089 50.6319 83.2641 50.0592 82.751 49.6628 82.3338 49.2016 82.0278 48.9152 81.6426 48.5022 81.0489 48.1842 80.4064 47.7712 79.8613 47.613 79.6528 47.3417 79.4929 47.2151 79.2828 46.9136 78.9144 46.6439 78.5124 46.3093 78.1607 46.1661 78.0313 46.0078 77.9339 45.8963 77.774 45.3718 77.0844 44.9437 76.3779 44.4192 75.6715 44.2278 75.399 43.9414 75.1417 43.7515 74.8539 43.5918 74.6454 43.4968 74.42 43.3386 74.1627 43.1637 73.8415 42.8774 73.537 42.686 73.2158 42.5277 72.9904 42.4327 72.7346 42.273 72.5413 42.0183 72.1089 41.6369 71.7542 41.3672 71.3218 41.1607 70.9838 41.1139 70.5514 40.8909 70.1815 40.3181 69.3304 39.6821 68.4321 39.1425 67.5491 39.0159 67.3238 38.936 67.0848 38.8094 66.8275 38.3799 66.121 37.9518 65.3659 37.4906 64.6442 37.3309 64.3869 37.2676 64.0824 37.0762 63.8404 36.8862 63.4887 36.5682 63.2634 36.3783 62.9421 36.2035 62.6863 36.1236 62.4443 35.997 62.1717 35.8372 61.8018 35.6157 61.4181 35.4243 61.0969 35.3127 60.8563 35.2494 60.631 35.1062 60.4224 34.5983 59.5866 34.1371 58.6883 33.7076 57.7413 33.4543 57.2435 33.1198 56.8111 32.8967 56.3133 32.6435 55.7834 32.3888 55.1897 32.1506 54.6751 32.0074 54.3219 31.8643 53.9534 31.7859 53.6002 31.5161 53.0065 31.1016 52.5238 30.8484 51.9301 30.6721 51.5616 30.5771 51.1764 30.4188 50.8385 30.3073 50.6466 30.1325 50.47 29.9742 50.5675 29.8476 50.6466 29.831 50.8065 29.926 51.1277 30.0842 51.7535 30.4023 52.4127 30.562 52.7644 30.8801 53.4388 31.0067 54.162 31.3247 54.8365 31.4844 55.2049 31.7376 55.5749 31.8959 55.96L32.7716 57.886C32.9298 58.2224 33.073 58.5924 33.278 58.9136 33.3594 59.1222 33.5327 59.3308 33.6126 59.5074 33.804 59.9733 33.8673 60.4057 34.0422 60.8396 34.2803 61.2735 34.6134 61.6419 34.7732 62.0758 35.8207 64.2438 36.8546 66.3768 38.1101 68.3195 38.4432 68.866 38.618 69.539 38.9677 70.0855 39.349 70.6626 39.8268 71.0645 40.1915 71.643 40.4613 72.1089 40.5578 72.7346 40.7959 73.2158 41.224 73.9541 41.7334 74.5951 42.178 75.2543 42.2896 75.4629 42.3212 75.6715 42.4478 75.8481 42.6061 76.1206 42.8457 76.4099 43.004 76.6824 43.227 77.0524 43.3386 77.4528 43.5918 77.774 43.8616 78.1425 44.2278 78.4485 44.466 78.8017 44.8156 79.2676 45.0387 79.7974 45.3718 80.2298 45.6099 80.551 45.9596 80.7748 46.1977 81.0976 46.5806 81.5939 47.8994 83.3128 48.2807 83.8259 48.8368 84.549 49.8693 85.6559 50.3621 86.6181 50.5053 86.9408 51.0132 87.6138 50.9017 87.7584 50.6319 87.967 49.3448 86.5389 49.1217 86.3151 48.5972 85.7838 48.1209 85.0773 47.6597 84.4836 47.5331 84.3405 46.2776 83.1362 46.1661 82.99 46.0545 82.8302 45.9445 82.6536 45.833 82.4617 45.4667 81.9639 45.2603 81.3534 44.8955 80.8403 44.7357 80.6637 44.5142 80.5038 44.3559 80.2937 44.0846 79.9101 43.8781 79.4762 43.6084 79.0757 43.1637 78.4805 42.591 77.9674 42.1614 77.3249 41.6535 76.6824 41.3189 75.8968 40.8426 75.2056 40.5894 74.8844 40.3031 74.6119 40.08 74.2586 39.9534 74.0988 39.9217 73.9389 39.8268 73.7775 39.6354 73.5202 39.3972 73.199 39.2857 72.8945 39.1425 72.6205 39.0476 72.3799 38.8893 72.1241 38.395 71.3218 37.872 70.4707 37.3791 69.6516 37.156 69.3152 37.0129 68.898 36.7913 68.5281 36.425 67.951 35.9005 67.4364 35.5358 66.8107 35.0595 66.1043 34.8365 65.2547 34.3918 64.5316 34.0904 64.0657 33.7241 63.6333 33.4543 63.1674 33.1198 62.6544 32.9615 62.0591 32.6917 61.5293 32.4204 61.0649 32.0557 60.6143 31.8326 60.1499 31.5945 59.6186 31.4362 59.1222 31.1981 58.5924 31.0549 58.3199 30.8484 58.0306 30.7369 57.7413 30.5771 57.3897 30.5304 57.0197 30.3706 56.6665 29.9426 55.686 29.2583 54.7558 28.8137 53.7936 28.464 53.0871 28.1776 52.3488 27.9244 51.6103 27.7963 51.2084 27.7164 50.8065 27.5265 50.438 27.1286 49.555 26.6373 48.5913 26.2228 47.6763 26.0645 47.2104 25.8897 46.7141 25.7315 46.2649 25.7149 46.1203 25.6832 45.9757 25.6199 45.8478 25.4285 45.4306 25.207 45.0287 25.0472 44.61 24.8724 44.1137 24.7141 43.6326 24.5543 43.118 23.9349 41.5453 23.3471 39.7625 22.7593 38.1106 22.696 37.8046 22.6643 37.4514 22.5528 37.1301 22.2664 36.2806 21.9484 35.4128 21.6469 34.5632 21.4721 34.1293 21.0591 34.2892 21.1707 34.7231 21.2807 35.3001 21.3772 35.4615 21.4405 35.9106 21.4887 36.1679 21.5354 36.3765 21.5836 36.6018 21.6469 36.8896 21.8067 37.1956 21.8851 37.4514 22.0433 37.966 22.0599 38.4471 22.2348 38.9617 22.4729 39.6194 22.711 40.309 22.9492 41.0002 23.014 41.32 23.0773 41.6732 23.1406 42.0431 23.2672 42.3629 23.3787 42.7176 23.4903 43.0069 23.8233 43.8731 24.173 44.6755 24.4594 45.5418 24.5709 46.0244 24.7141 46.5055 24.8407 47.0201 24.9839 47.2911 25.1904 47.5651 25.2703 47.8377 25.3969 48.0462 25.4134 48.2868 25.5084 48.5426 25.7315 49.0739 25.9379 49.6525 26.1595 50.1975 26.366 50.6466 26.6373 51.1125 26.8106 51.6103 26.8905 51.8189 26.8905 52.0275 26.9704 52.2528 27.4783 53.7129 28.0661 55.2369 28.6705 56.601 28.8303 56.9542 28.877 57.2922 29.0202 57.6607 29.1483 57.9499 29.3382 58.2224 29.4497 58.5285 29.513 58.7051 29.5763 58.8969 29.6562 59.1055 29.8476 59.4907 30.1491 59.8287 30.354 60.2138 30.8951 61.3374 31.3563 62.4123 32.0074 63.376 32.6435 64.2438 32.8967 65.4618 33.3594 66.5382 33.596 67.0193 33.8673 67.4532 34.1537 67.8871 34.2954 68.1109 34.3918 68.4002 34.5019 68.6255 34.7882 69.1705 34.948 69.6516 35.3459 70.1343 35.6157 70.5514 35.5825 70.6626 35.8207 71.2091 35.8855 71.369 36.1703 72.4286 36.107 72.4286 36.0121 72.4926 35.5026 72.1729 35.3459 71.9628 35.0912 71.707 34.7249 71.369 34.4702 70.792 34.3436 70.4707 34.0904 69.9881 33.9623 69.7171 33.6443 69.0107 33.073 68.4321 32.6917 67.7912 32.437 67.4364 32.3255 66.9873 32.119 66.5869 31.7859 65.847 31.388 65.0934 31.0383 64.323 30.8951 64.0185 30.6721 63.7292 30.4822 63.4232 30.3073 63.1522 30.2124 62.8142 30.0059 62.5082 29.6246 61.8672 29.1483 61.1608 28.8303 60.4544 28.5921 59.9246 28.464 59.3947 28.2259 58.8969 28.1626 58.737 28.0194 58.5757 27.9244 58.4158 27.7647 58.1585 27.7014 57.886 27.5431 57.5815 27.3683 57.1796 27.1136 56.8111 26.9071 56.394 26.5408 55.5901 26.3193 54.771 25.953 54.0022 25.7782 53.6002 25.4767 53.279 25.3185 52.9258 25.0788 52.364 25.0321 51.6575 24.7307 51.0638 24.0781 49.5063 23.2838 47.9016 22.6643 46.233 22.5844 45.9589 22.5528 45.6392 22.4729 45.3652 22.2197 44.6283 21.8851 43.9691 21.5987 43.2779 21.4887 42.9581 21.4721 42.6841 21.3772 42.3629 21.2023 41.8665 20.9642 41.3519 20.7893 40.8876 20.7411 40.7262 20.7245 40.5344 20.6612 40.373 20.4713 39.9406 20.3432 39.394 20.1367 38.9297 20.0252 38.6876 19.8353 38.4303 19.7554 38.1745 19.5655 37.6934 19.6137 37.1301 19.4705 36.649 19.2324 35.9761 18.9611 35.2529 18.7064 34.6104 18.5964 34.2268 18.5647 33.8568 18.405 33.4716 18.2467 33.0225 18.0869 32.5246 17.9287 32.1075 17.7538 31.6249 17.7689 31.1757 17.6107 30.6779 17.5308 30.3094 17.3725 29.9075 17.2293 29.603 17.0078 28.9286 16.9113 28.2374 16.6898 27.6436 16.6732 27.5644 16.625 27.435 16.5782 27.3239 16.5134 27.1457 16.3868 26.9859 16.2286 27.0346 16.0537 27.0985 16.0537 27.3543 16.0537 27.5157 16.1005 27.9648 16.2753 28.3987 16.4185 28.8007 16.5466 29.1859 16.6415 29.6182 16.7365 30.0049 16.7998 30.2759 16.7847 30.5332 16.848 30.8073 16.943 31.1925 17.0711 31.5457 17.1811 31.9309 17.2776 32.2673 17.2293 32.6678 17.3092 32.9418 17.5474 33.7441 17.8006 34.6591 18.0719 35.4128 18.1834 35.8147 18.2151 36.2806 18.3266 36.6018 18.4848 37.0342 18.6114 37.4514 18.7546 37.8365 18.8827 38.2065 18.9144 38.4958 19.041 38.8155 19.2008 39.1855 19.3907 39.5219 19.5022 39.9239 19.6288 40.4065 19.6288 40.9028 19.7871 41.3519 20.09 42.139 20.4231 42.8455 20.6778 43.5991 20.7728 43.8564 20.7893 44.1457 20.8843 44.4197 21.1224 45.0439 21.2807 45.7351 21.4887 46.3761 21.8384 47.2591 22.2664 48.1589 22.5528 49.0572 22.9024 49.9402 22.9492 50.9998 23.2988 51.8189 23.4903 52.2361 23.8716 52.4934 24.0464 52.8786 24.1896 53.1496 24.1414 53.4236 24.2363 53.7449 24.3328 54.0828 24.491 54.4026 24.6026 54.7238 24.6824 55.0283 24.7623 55.3008 24.8407 55.5749 24.9839 55.9113 25.2386 56.2326 25.3501 56.5538 25.5883 57.0821 25.7315 57.6607 26.0178 58.1113 26.2228 58.4645 26.5258 58.801 26.7322 59.2181 26.9387 59.652 27.002 60.1332 27.1769 60.5823 27.4783 61.2567 27.8596 61.8825 28.0827 62.6056 28.3208 63.2146 28.4007 63.9058 28.7187 64.4509 28.9885 65.0294 29.3849 65.5257 29.7029 66.0738 29.8793 66.491 30.0526 66.8762 30.244 67.3238 30.4023 67.6131 30.6886 67.9343 30.8951 68.2708 31.1016 68.6727 31.3563 69.1218 31.5312 69.539 31.6894 69.877 31.7376 70.1815 31.8959 70.4707 32.1823 70.8879 32.3888 71.2579 32.6586 71.6902 32.8967 72.0602 33.168 72.558 33.3428 72.9904 33.486 73.3604 33.6126 73.6969 33.804 74.0013 34.0256 74.2906 34.2954 74.5799 34.4702 74.8692 34.6616 75.1904 34.8998 76.25 34.7882 76.282 34.5983 76.3612 33.9623 75.7674 33.7724 75.5588 33.2946 74.9164 33.0248 74.114 32.5952 73.473 32.1039 72.7666 31.801 72.3799 31.4362 71.5776 31.2131 71.1132 30.8484 70.2941 30.562 69.8602 30.3073 69.4766 29.9742 69.1218 29.7828 68.6879 29.6246 68.3514 29.5296 67.9023 29.3849 67.5491 29.1483 67.036 28.6705 66.6996 28.4324 66.2017 28.1309 65.6064 28.0194 64.9807 27.7164 64.4037 27.5898 64.1631 27.3834 63.8586 27.2718 63.5694 27.1136 63.2146 27.0186 62.8782 26.8588 62.525 26.5258 61.8018 26.0178 61.208 25.7149 60.4711 25.3501 59.7327 25.1587 58.9608 24.7774 58.1905 24.6026 57.822 24.2845 57.4521 24.0946 57.0349 23.8233 56.5051 23.7133 55.96 23.4435 55.415 23.2988 55.0938 23.0773 54.771 22.9175 54.4513 22.711 54.0022 22.6311 53.4723 22.4262 52.9897 21.9167 51.8829 21.4405 50.776 20.9476 49.6677 20.7728 49.2353 20.7245 48.8166 20.5196 48.3675 20.3598 47.9975 20.1533 47.6611 19.9785 47.2591 19.5655 46.2954 19.4057 45.1566 18.9777 44.1944 18.7546 43.695 18.4999 43.2307 18.2949 42.7176 18.0086 41.8665 17.8654 41.0155 17.579 40.1659 17.1178 38.8657 16.7365 37.4849 16.2753 36.2334 16.1487 35.8147 16.117 35.4615 15.9904 35.0611 15.8472 34.6744 15.7206 34.2892 15.5759 33.9207 15.481 33.6315 15.4177 33.1656 15.3227 32.7804 14.9881 31.6736 14.655 30.582 14.2888 29.4751 14.2255 29.2011 14.1938 28.752 14.0989 28.3835 14.0672 28.2069 13.9391 27.9648 13.9075 27.805 13.8125 27.5644 13.8125 27.3543 13.7492 27.0833 13.4478 26.2795 13.2413 25.3325 12.97 24.5301 12.9233 24.2896 12.9067 23.9196 12.8117 23.6151 12.447 22.4915 12.2707 21.0787 11.8426 20.0206 11.7477 19.8272 11.6195 19.6171 11.4131 19.6658 11.2066 19.7146 11.2548 19.9399 11.2699 20.1165 11.3332 20.6615 11.5246 21.0954 11.6195 21.5446 11.6512 21.7212 11.6512 21.9937 11.6512 22.2175 11.6994 22.4276 11.7311 22.6849 11.7944 22.8615 12.0009 23.5512 12.2239 24.3535 12.4304 25.0432 12.4937 25.3645 12.447 25.8638 12.5254 26.2307 12.8117 27.3071 13.0182 28.6073 13.4312 29.603 13.8125 30.4693 13.8758 31.5457 14.0989 32.5079 14.1938 32.9083 14.2255 33.327 14.2571 33.7609 14.337 34.1446 14.5601 34.4506 14.6867 34.787 14.7817 35.0443 14.7817 35.2529 14.8615 35.4935 15.0529 36.1847 15.2112 36.8896 15.481 37.5808 15.6408 38.0619 15.894 38.5277 16.0537 39.0088 16.1487 39.2022 16.1005 39.394 16.1638 39.6194 16.2753 40.1005 16.3717 40.5816 16.53 41.0627 16.848 41.9959 17.166 43.0373 17.4991 43.9691 17.6905 44.5141 17.7373 45.0287 17.9287 45.5418 18.6597 47.5651 19.4374 49.6205 20.1533 51.6423 20.2965 52.0762 20.4065 52.5238 20.5196 52.9577 20.6778 53.4236 20.9476 53.8408 21.1541 54.226 21.4088 54.771 21.4405 55.3176 21.6469 55.8794 21.8851 56.5051 22.2031 57.0197 22.4262 57.7094 22.5362 58.0306 22.6643 58.3838 22.8075 58.7051 22.9175 58.9608 23.1406 59.1862 23.2672 59.3947 23.427 59.8119 23.4586 60.3417 23.6651 60.7269 23.855 61.1441 24.1896 61.4501 24.4127 61.852 24.6508 62.1885 24.6659 62.6224 24.8407 63.038 25.1421 63.6485 25.4767 64.2103 25.7465 64.8848 25.8731 65.1588 25.9379 65.4146 26.0495 65.6704 26.1595 65.9596 26.4142 66.2657 26.5408 66.5702 26.5408 66.5702 26.5725 66.5702 26.5725 66.5869 26.5891 66.6509 26.5891 66.6996 26.6207 66.762 26.6373 66.9066 26.684 67.0665 26.7322 67.1807 26.7955 67.3558 27.002 67.6618 27.0653 67.7729 27.1136 67.8384 27.2567 67.9998 27.3683 68.1429 27.4316 68.2083 27.4783 68.2708 27.5265 68.3514 27.7963 68.7534 27.8129 69.3791 28.0345 69.8282 28.2425 70.2941 28.6238 70.6626 28.8619 71.1132 29.0202 71.4817 29.1 72.3799 28.9086 72.3967 28.0028 72.3967 27.9244 71.1132 27.6381 70.454 27.3683 69.9089 27.0186 69.4766 26.7322 68.962 26.684 68.866 26.5891 68.6727 26.5258 68.4641 26.4609 68.3027 26.3826 68.1109 26.3193 67.951 26.2077 67.7105 26.2077 67.7257 26.1444 67.5659 26.0495 67.4045 25.7948 67.0848 25.7149 66.9066L25.7149 66.8762C25.3501 66.3296 25.1105 65.5257 24.8407 65.1406 24.7141 64.9168 24.5227 64.7082 24.3961 64.4844 24.173 64.1296 24.0464 63.6973 23.8716 63.2634 23.6967 62.9254 23.427 62.5569 23.2672 62.1885 23.0607 61.7378 23.029 61.1608 22.8226 60.6949 22.711 60.4544 22.5045 60.1971 22.3945 59.9733 22.1564 59.4267 21.9966 58.8649 21.7268 58.3519 21.5987 58.0946 21.4239 57.8692 21.2807 57.6135 21.0908 57.1796 20.9642 56.7152 20.7411 56.2813 20.2648 55.4302 19.7554 54.4832 19.359 53.5682 19.136 53.0065 19.041 52.4599 18.8029 51.9301 18.6114 51.4809 18.3417 51.0166 18.1352 50.5979 18.0086 50.3086 17.9603 50.0209 17.8488 49.7164 17.6589 49.1866 17.4358 48.6568 17.2293 48.1422 17.1178 47.8209 17.0229 47.0201 16.943 46.6989 16.7847 46.3289 16.5933 45.9102 16.435 45.5418 16.1954 44.98 16.1005 44.3877 15.8472 43.8092 15.6724 43.392 15.4659 42.9094 15.2911 42.477 15.1479 42.0919 15.1313 41.7539 14.9731 41.3854 14.8615 41.1281 14.6867 40.8069 14.6068 40.5344 14.4651 40.2131 14.4003 39.6666 14.2888 39.2327 14.1305 38.7515 13.9241 38.2872 13.7809 37.8046 13.6693 37.4514 13.6693 36.617 13.5578 36.4085 13.0665 34.9332 12.6053 33.327 12.129 31.8334 11.9526 31.1757 11.8426 30.4693 11.6361 29.7964 11.5728 29.5223 11.5728 29.1859 11.4929 28.9118 11.3648 28.4962 11.1749 28.0288 11.0634 27.6284 10.9835 27.3071 10.9368 27.0026 10.8735 26.7134 10.7936 26.4089 10.6338 26.0724 10.5238 25.7664 10.2374 24.8834 10.0943 23.9196 9.83954 23.0701 9.72801 22.6849 9.72801 22.2175 9.64963 21.881 9.29996 20.8062 9.20501 19.5699 8.91864 18.3991 8.85534 18.0764 8.77546 17.7567 8.71216 17.4354 8.17107 15.3329 7.91786 12.9563 7.31347 10.9177 7.20194 10.5325 7.33005 10.0514 7.26524 9.61905 7.12206 9.15317 6.99545 8.71926 6.85227 8.30211 6.78897 8.07678 6.78897 7.9154 6.74074 7.70834 6.63071 7.33838 6.47095 7.06586 6.31269 7.11458 6.08963 7.2105 6.12128 7.41907 6.12128 7.70834 6.15293 8.18944 6.20116 8.55941 6.31269 8.94459 6.36092 9.29628 6.32777 9.53683 6.40765 9.84285 6.59755 10.4853 6.67744 11.4156 6.75732 12.0093 6.80404 12.2666 6.78897 12.5879 6.83569 12.8924 6.9005 13.1816 7.12206 13.6155 7.20194 13.92 7.26524 14.3692 7.26524 14.9477 7.31347 15.3968 7.39336 15.7988 7.50338 16.1839 7.63149 16.5691 7.71137 16.8888 7.63149 17.2101 7.74303 17.5161 7.8214 17.8374 8.01281 18.1251 8.05954 18.4463 8.12284 18.8635 8.05954 19.4101 8.13942 19.7313 8.60062 21.6085 8.72723 23.7765 9.28489 25.5898 9.34669 25.8638 9.34669 26.1196 9.40999 26.3601 9.8727 27.9176 10.2058 29.6182 10.6821 31.1757 10.7303 31.4011 10.7303 31.6568 10.7936 31.9309 10.9519 32.4759 11.0634 33.0697 11.1749 33.6315 11.2548 33.872 11.2548 34.0974 11.3015 34.3379 11.4613 34.9332 11.6828 35.4782 11.8592 36.0553 11.9376 36.3293 11.9526 36.5698 12.0009 36.8591 12.0491 37.0829 12.1606 37.3235 12.2239 37.5153 12.3189 37.8533 12.2872 38.1745 12.3822 38.4471 12.447 38.6404 12.6053 38.8155 12.652 39.0256 12.7168 39.3453 12.7635 39.6666 12.86 40.0045 12.97 40.4065 13.178 40.7917 13.3513 41.1768 13.4794 41.4981 13.4794 41.8178 13.5895 42.139 13.8291 42.7176 14.0672 43.3433 14.2571 43.9219 14.4486 44.403 14.4651 44.8841 14.655 45.3819 14.7666 45.6864 14.8932 46.0244 15.0047 46.3456 15.0846 46.6014 15.1313 46.8267 15.2112 47.0993 15.3062 47.3398 15.5609 47.725 15.7206 48.0143 15.8307 48.3675 15.7839 48.8166 15.894 49.1866 16.0055 49.5718 16.212 49.861 16.3552 50.1975 16.4667 50.5675 16.4667 50.9039 16.5466 51.2724 16.6415 51.5616 16.8314 51.8189 16.943 52.0762 17.0545 52.364 17.166 52.6852 17.2776 52.9577 17.3409 53.1678 17.5308 53.3749 17.6107 53.585 17.7538 53.9215 17.897 54.2899 18.0236 54.6599 18.2467 55.141 18.2784 55.8002 18.4366 56.3772 18.4848 56.5371 18.4532 56.9542 18.3417 56.9862 18.1186 57.0197 17.8488 56.6497 17.6905 56.4259 17.4358 56.056 17.166 55.5901 16.9596 55.1257 16.8947 54.9491 16.848 54.7893 16.7998 54.6111 16.6732 54.226 16.53 53.7936 16.3552 53.3749 16.2602 53.1496 16.1005 52.8786 16.0055 52.6213 15.8789 52.2528 15.9422 51.8022 15.799 51.4809 15.689 51.2084 15.4659 50.9998 15.3227 50.7273 15.2429 50.47 15.2112 50.1975 15.0997 49.9722 14.9731 49.6677 14.8133 49.3952 14.6234 49.1211 14.5119 48.8486 14.5119 48.5761 14.4169 48.2244 14.3054 47.8544 14.1938 47.4677 14.0356 47.1312 13.8758 46.7628 13.6543 46.4248 13.4945 46.0244 13.4312 45.8478 13.383 45.6392 13.3197 45.4306 13.2247 45.1566 13.0815 44.8353 12.97 44.61 12.9233 44.3877 12.875 44.1776 12.7967 43.9691 12.652 43.663 12.4937 43.3433 12.3822 43.0069 12.2872 42.7328 12.2707 42.4603 12.1606 42.1878 12.0009 41.7219 11.8592 41.1921 11.6994 40.7262 11.5879 40.3578 11.5728 40.0045 11.4613 39.6513 11.3181 39.2327 11.1433 38.8155 11.0001 38.3999 10.8735 38.0619 10.8418 37.6767 10.7454 37.3554 10.5871 36.8896 10.364 36.4892 10.2058 36.0065 10.1093 35.6229 10.1093 35.2529 10.046 34.8997 9.77624 34.0167 9.48987 33.0545 9.20501 32.1547 8.91864 31.1438 8.87041 29.9882 8.56897 28.9758 8.37756 28.2709 8.13942 27.5796 7.91786 26.8747 7.8214 26.4896 7.8214 26.1348 7.74303 25.7664 7.53503 24.996 7.26524 23.9196 6.99545 23.1021 6.85227 22.6529 6.88392 22.2023 6.75732 21.7212 6.63071 21.2553 6.59755 20.6935 6.47095 20.1804 6.36092 19.8592 6.26446 19.6658 6.20116 19.2487 6.10621 18.8635 6.12128 18.3824 6.05798 18.0764 5.99467 17.7567 5.47017 15.9906 5.42194 15.6694 5.37521 15.3649 5.37521 14.7376 5.34356 14.5625 5.31191 14.4011 5.04062 13.6155 5.02554 13.4542 4.97731 13.2456 4.97731 13.0202 4.88236 12.6031 4.81906 12.2027 4.59599 11.3516 4.54776 11.0943 4.50104 10.8553 4.50104 10.324 4.45281 10.1001 4.40609 9.81088 4.24632 9.24909 4.13479 8.83193 3.99161 8.33408 4.11972 7.78751 3.95995 7.30793 3.865 6.93797 3.72182 6.61521 3.59521 6.26352 3.53191 5.97425 3.43696 5.58906 3.43696 5.39723 3.38873 5.15516 3.38873 4.57814 3.37215 4.36804 3.37215 4.08029 3.24554 3.61442 3.21389 3.18203 3.18224 2.63547 3.05413 2.00973 2.95917 1.67174 2.91094 1.46469 2.92752 1.20739 2.89587 1.03078 2.73611 0.485736 2.59443-0.0456069 2.29148 0.00311221 2.10158 0.0183369 2.02169 0.179719 2.11665 0.564904 2.22818 0.982062 2.25983 1.31853 2.37137 1.76766 2.46632 1.99451 2.46632 2.55478 2.4829 2.74813 2.4829 3.06785 2.49948 3.11657 2.5462 3.40584 2.5462 3.5185 2.59443 3.82299 2.6095 3.95088 2.65773 4.14424 2.73611 4.41828 2.73611 4.57814L2.73611 5.23585C2.73611 5.39723 2.73611 5.44443 2.76927 5.70173 2.84764 5.9575 2.86422 5.97425 2.89587 6.19957 2.91094 6.39141 2.89587 6.56801 2.89587 6.71265 2.89587 6.90448 2.92752 7.06586 2.97425 7.27444 3.08729 7.6444 3.34049 8.1727 3.24554 8.70404 3.13401 9.29628 3.29226 9.84285 3.43696 10.324 3.50026 10.6619 3.43696 11.0152 3.50026 11.3029L3.81828 12.6518C3.91323 13.0522 3.865 13.3735 3.95995 13.7115 4.08807 14.2093 4.43774 14.8838 4.45281 15.0771 4.50104 15.3161 4.46939 15.9114 4.54776 16.2951 4.61106 16.665 4.70753 17.099 4.7241 17.3547 4.75576 17.5633 4.7241 17.6912 4.75576 17.8526 4.77083 18.0292 5.02554 18.8802 5.0572 19.1056 5.10543 19.3461 5.08885 19.4573 5.13708 19.6826 5.1838 19.9064 5.37521 20.8214 5.40687 21.1274 5.45359 21.4167 5.42194 21.6085 5.47017 21.881 5.5817 22.3637 5.77161 22.7321 5.85149 23.166 5.93137 23.5025 5.89821 23.6958 5.94644 23.9683 6.0429 24.3703 6.16951 24.7387 6.24788 25.1239 6.31269 25.4284 6.31269 25.7344 6.36092 26.0222 6.48753 26.6814 6.58248 27.3543 6.75732 28.0136 6.88392 28.3987 7.10699 28.7672 7.21852 29.1371 7.31347 29.4751 7.33005 29.8268 7.42501 30.1648 7.50338 30.4693 7.71137 30.7418 7.78975 31.0783 7.85305 31.3051 7.8214 31.5929 7.86963 31.8822 7.96458 32.1866 8.10777 32.4759 8.13942 32.8291 8.2193 33.0545 8.17107 33.2783 8.2193 33.5356 8.29918 33.8081 8.44086 34.0486 8.50567 34.3059 8.56897 34.6591 8.56897 35.0291 8.66393 35.3336 8.75888 35.734 8.91864 36.1192 9.04525 36.4892 9.17185 36.8256 9.12513 37.1956 9.18843 37.5655 9.40999 38.3664 9.68128 39.2494 9.95107 39.9878 10.0777 40.373 10.046 40.8069 10.1576 41.2393 10.2691 41.5133 10.4123 41.7219 10.5238 41.9777 10.6188 42.235 10.5555 42.5242 10.6188 42.7983 10.7454 43.3114 10.8252 43.9523 11.0001 44.4197 11.1598 44.948 11.4764 45.4139 11.6828 45.9102 11.8592 46.4568 11.8908 47.0201 12.0491 47.5651 12.2239 48.0462 12.447 48.5273 12.6369 48.9277 12.7967 49.3464 12.7484 49.861 12.9067 50.2614 13.0348 50.7273 13.3513 51.0638 13.5427 51.5297 13.7658 52.0427 13.8758 52.5725 14.0356 53.1024 14.0838 53.3277 14.1305 53.5363 14.1788 53.7936 14.3853 54.4513 14.7349 55.0283 14.9731 55.6708 15.0529 55.992 15.0846 56.2326 15.163 56.5051 15.3227 56.9862 15.5292 57.4521 15.7357 57.9347 15.9256 58.3199 16.1638 58.7051 16.3552 59.1222 16.53 59.4907 16.5466 59.8759 16.7365 60.2626 16.848 60.631 17.0229 61.0482 17.1811 61.4181 17.2776 61.6587 17.2776 61.8672 17.3876 62.123 17.8172 63.1522 18.3899 64.1784 18.8662 65.206 19.136 65.7511 19.2475 66.3616 19.5022 66.9234 19.7087 67.3877 19.9468 67.7912 20.1533 68.2708 20.2648 68.5768 20.3116 68.866 20.4548 69.1538 20.6929 69.6988 21.0591 70.2622 21.3123 70.8407 21.3772 70.9518 21.5671 71.5456 21.4721 71.7877 21.4721 71.8029 21.4405 71.8516 21.4239 71.8516 21.2656 71.8988 20.9009 71.6263 20.7245 71.4345 20.0569 70.7767 19.9468 69.539 19.5173 68.6879 19.3907 68.4641 19.2324 68.1916 19.0877 67.9343 19.0244 67.7577 18.9928 67.5978 18.9144 67.4364 18.6114 66.8762 18.2784 66.4103 18.0236 65.7998 17.8488 65.3979 17.8006 64.9168 17.6423 64.5316 16.8631 62.8934 16.0055 61.3222 15.3062 59.7008 14.9731 58.9608 14.8932 58.0946 14.6234 57.2922 14.4486 56.8263 14.1471 56.4259 13.9708 55.992 13.8125 55.6388 13.7809 55.2536 13.606 54.9172 13.383 54.4345 13.0815 54.0174 12.9233 53.4876 12.8117 53.1678 12.7635 52.8298 12.6369 52.5238 12.4937 52.1386 12.239 51.8494 12.0958 51.5297 11.8908 50.9998 11.8426 50.4868 11.6512 49.8915 11.5728 49.6037 11.4613 49.2505 11.3332 48.9613 11.2548 48.7039 11.2232 48.4314 11.1433 48.1589 10.9368 47.5316 10.572 46.9866 10.3173 46.3761 10.1576 45.9437 10.2058 45.4139 10.046 44.9952 9.88777 44.6587 9.61798 44.3877 9.45822 44.033 9.33162 43.663 9.45822 43.2139 9.34669 42.7815 9.23666 42.3629 9.0769 41.9777 8.93522 41.594 8.87041 41.32 8.85534 41.0809 8.75888 40.8556 8.56897 40.3258 8.39414 39.8279 8.2193 39.3453 8.13942 39.0743 8.13942 38.8475 8.02789 38.5917 7.90128 38.3192 7.66314 38.0451 7.55161 37.6934 7.42501 37.2108 7.39336 36.6977 7.28182 36.1847 7.07534 35.5742 6.85227 35.0443 6.67744 34.4186 6.59755 34.2268 6.59755 34.0334 6.5659 33.8248 6.40765 33.263 6.32777 32.6373 6.20116 32.1075 6.12128 31.8334 6.15293 31.5929 6.08963 31.3371 5.93137 30.8225 5.73996 30.2759 5.5817 29.7964 5.50182 29.4584 5.47017 29.1371 5.40687 28.8326 5.1838 27.9983 4.92908 27.0346 4.67587 26.2475 4.62764 26.0069 4.65929 25.8136 4.56434 25.5746 4.40609 24.9473 4.13479 24.1769 3.99161 23.5512 3.9283 23.166 3.9283 22.796 3.83335 22.4596 3.75347 22.0089 3.59521 21.6085 3.50026 21.1746 3.48368 20.966 3.50026 20.8062 3.50026 20.6615 3.45203 20.3723 3.43696 20.0678 3.38873 19.8272 3.11894 18.6717 2.65773 17.3075 2.43467 16.1672 2.32313 15.75 2.32313 15.3329 2.27641 14.9477 2.22818 14.6417 2.21311 14.322 2.11665 14.0327 2.02169 13.7267 1.89509 13.4374 1.84686 13.1177 1.80014 12.6366 1.78356 12.1555 1.70368 11.6896 1.70368 11.6409 1.70368 11.6241 1.6871 11.5769 1.62379 11.0152 1.32235 9.81088 1.25905 9.345 1.1641 8.78321 1.09929 8.23816 1.03599 7.65962 1.03599 7.30793 0.957612 6.93797 0.92596 6.55279 0.8295 5.97425 0.686316 5.44443 0.639593 4.85066 0.607941 4.43351 0.623013 4.08029 0.57629 3.75905 0.559711 3.5185 0.52806 3.16529 0.258271 3.16529-0.0115179 3.16529 0.0352053 3.4713 0.000982477 3.72708-0.0115179 4.32084 0.0985077 5.12319 0.146738 5.49315 0.241692 6.18283 0.16181 6.87251 0.241692 7.57893 0.289922 7.98087 0.416527 8.38128 0.464757 8.73601 0.559711 9.40895 0.623013 10.1001 0.686316 10.7259L0.686316 10.7579C0.717967 11.0791 0.734546 11.3516 0.797849 11.6409 0.797849 11.6729 0.797849 11.6896 0.8295 11.7201L0.8295 11.7688 0.8295 11.8175C0.87773 11.9454 0.894309 12.09 0.941032 12.2027 1.00433 12.4432 0.989263 12.6518 1.05257 12.9243 1.25905 13.7115 1.21233 14.5625 1.41731 15.3161 1.70368 16.4397 1.86344 17.644 2.21311 18.7843 2.29148 19.0888 2.21311 19.4253 2.29148 19.7785 2.4196 20.1165 2.49948 20.4697 2.57785 20.8062 2.65773 21.2401 2.59443 21.6725 2.70446 22.0896 2.80092 22.4915 2.92752 22.8935 3.02248 23.2787 3.16566 23.711 3.16566 24.1937 3.29226 24.6915 3.43696 25.2046 3.59521 25.7496 3.67359 26.2307 3.8017 26.826 3.83335 27.4837 3.95995 28.0608 4.03984 28.5921 4.34128 29.1859 4.45281 29.7476 4.45281 29.9075 4.45281 30.1009 4.46939 30.3094 4.54776 30.6931 4.65929 31.1118 4.75576 31.465 4.78741 31.6568 4.77083 31.7862 4.83413 31.9933 5.02554 32.7332 5.2471 33.6315 5.45359 34.3379 5.51689 34.5465 5.53347 34.7718 5.5817 34.9804 5.73996 35.4782 5.88314 35.8634 5.94644 36.1192 5.99467 36.3765 6.0429 36.6658 6.08963 36.9383 6.20116 37.3235 6.32777 37.6447 6.376 38.0131 6.4393 38.2872 6.48753 38.5277 6.5659 38.8003 6.64578 39.1215 6.78897 39.4108 6.91557 39.7305 7.12206 40.373 7.17029 41.0809 7.37678 41.7219 7.50338 42.0919 7.6948 42.4603 7.8214 42.8455 7.91786 43.2307 7.96458 43.663 8.07612 44.0802 8.26753 44.7075 8.50567 45.4306 8.72723 46.0564 9.0136 46.81 9.17185 47.6611 9.40999 48.3355 9.52303 48.64 9.50645 48.9125 9.6014 49.2353 9.82447 49.9235 10.046 50.7273 10.2691 51.4322 10.3957 51.8189 10.3957 52.1874 10.5555 52.5573 10.7936 53.1496 11.1433 53.6809 11.3648 54.2747 11.5412 54.8197 11.5879 55.3176 11.7944 55.8322 12.0491 56.4899 12.334 57.1324 12.6053 57.8373 12.7635 58.3199 12.8434 58.801 13.0182 59.2669 13.178 59.6186 13.3995 60.0372 13.5895 60.4057 13.7176 60.7437 13.8608 61.0969 13.9391 61.4333 14.0356 61.6906 14.3054 62.1398 14.5119 62.493 14.7183 62.9741 14.7666 63.4719 14.9248 63.9698 15.2112 64.7554 15.5759 65.5592 15.894 66.2657 16.0371 66.5382 16.0537 66.7955 16.1638 67.1152 16.3552 67.6131 16.6898 67.9998 16.8947 68.4641 17.1027 68.9132 17.166 69.3959 17.3409 69.8282 17.6423 70.4707 17.8654 70.8407 17.8488 71.7542 17.8488 71.8196 17.8172 71.8988 17.7373 71.9156 17.579 71.9795 17.3876 71.707 17.2776 71.6263 16.7847 71.1132 16.7365 70.6793 16.4185 69.9881 15.9422 68.962 15.3544 68.0302 14.8766 67.036 14.6716 66.5382 14.5601 65.9596 14.3054 65.4466 14.1788 65.1253 13.9708 64.7721 13.8291 64.4509 13.5895 64.0017 13.4794 63.5191 13.2413 63.102 12.9233 62.461 12.6369 61.7546 12.3671 61.0969 12.239 60.8076 12.239 60.5671 12.129 60.3417 12.0009 60.054 11.8426 59.8119 11.6994 59.5394 11.5412 59.1222 11.4296 58.5924 11.2548 58.1585 10.8886 57.3562 10.4756 56.4899 10.1425 55.6388 9.88777 54.8365 9.72801 54.1133 9.44164 53.2638 9.33162 52.9577 9.17185 52.5725 9.0769 52.2528 8.96687 51.9301 8.96687 51.6895 8.87041 51.4018 8.60062 50.6786 8.26753 49.8915 7.96458 49.217 7.80633 48.8653 7.7581 48.5273 7.63149 48.1589 7.47173 47.725 7.28182 47.2104 7.12206 46.7628 6.91557 46.2162 6.9005 45.5418 6.67744 44.8993 6.21623 43.6326 5.61335 42.2517 5.21545 40.8556 5.15215 40.5344 5.1838 40.2131 5.08885 39.8919 4.86578 39.2022 4.62764 38.4303 4.43774 37.6934 4.18302 36.8896 4.22974 36.0233 3.95995 35.2042 3.64194 34.178 3.29226 33.1184 2.95917 32.1075 2.86422 31.7695 2.91094 31.465 2.81599 31.1438 2.59443 30.3247 2.32313 29.4097 2.05335 28.6713 1.91016 28.318 1.91016 27.9176 1.78356 27.5796 1.62379 27.1457 1.21233 27.3071 1.2274 27.7897 1.25905 28.2069 1.41731 28.752 1.46554 28.9605 1.51377 29.2818 1.51377 29.571 1.57707 29.8755 1.6871 30.4221 1.86344 30.9032 2.02169 31.3843 2.18146 31.9309 2.18146 32.38 2.33971 32.9418 2.43467 33.1823 2.5462 33.5036 2.59443 33.7609 2.76927 34.2892 2.76927 34.8677 2.95917 35.3336 3.08729 35.734 3.21389 36.1847 3.32392 36.6018 3.4038 36.8896 3.38873 37.1301 3.48368 37.3722 3.59521 37.8533 3.75347 38.3664 3.91323 38.8155 3.99161 39.1215 3.95995 39.3621 4.02326 39.6194 4.13479 40.0045 4.22974 40.4065 4.34128 40.7429 4.43774 41.1114 4.43774 41.594 4.51611 41.9624 4.75576 42.6369 4.99389 43.3433 5.21545 43.9691 5.45359 44.6587 5.47017 45.4139 5.73996 46.1203 6.20116 47.4038 6.59755 48.8653 7.07534 50.132 7.20194 50.47 7.15371 50.8065 7.26524 51.1612 7.39336 51.7063 7.50338 52.2528 7.6948 52.7827 7.80633 53.0384 7.96458 53.311 8.07612 53.5682 8.2193 53.8727 8.23588 54.1788 8.39414 54.5152 8.50567 54.771 8.66393 55.045 8.75888 55.3008 8.91864 55.7195 8.87041 56.2173 9.03017 56.5858 9.1402 56.907 9.29996 57.2283 9.40999 57.5495 9.55468 57.9012 9.55468 58.2712 9.68128 58.5924 9.82447 58.8969 10.031 59.1862 10.1425 59.4435 10.2691 59.7327 10.3007 60.022 10.4123 60.3098 10.5238 60.6143 10.6821 60.937 10.8252 61.2263 10.9519 61.5293 10.9835 61.8825 11.1116 62.2372 11.2232 62.5082 11.4296 62.8142 11.5412 63.102 11.6512 63.4232 11.6512 63.7932 11.7944 64.1296 11.9692 64.6442 12.2707 65.0446 12.4937 65.5592 12.6369 65.8805 12.652 66.2809 12.8117 66.6341 13.0016 67.0665 13.2413 67.4852 13.4312 67.8704 13.6693 68.4169 13.9075 68.9939 14.0989 69.4918 14.5119 70.4235 14.6716 71.4345 15.0529 72.3495 15.4026 72.9904 15.7839 73.6649 16.1005 74.2906 16.2602 74.6606 16.3084 75.0458 16.4818 75.4142 16.6898 75.8314 16.9912 76.1541 17.166 76.5713 17.3243 76.9717 17.4358 77.3569 17.5956 77.7573 17.8172 78.2567 18.1668 78.7378 18.3899 79.2036 18.5165 79.4929 18.5964 79.7974 18.7064 80.0379 18.9611 80.615 19.3907 81.0489 19.6137 81.6274 19.7554 81.9639 19.8835 82.3338 19.9935 82.7023 20.2965 83.2641 20.6929 83.7787 20.9958 84.3405 21.2023 84.8048 21.3289 85.2387 21.5671 85.6559 21.965 86.2664 22.2197 86.6835 22.5995 87.326 22.8542 87.7112 23.1888 88.3369 23.3787 88.7374 23.5701 89.2032 23.9183 89.5397 24.1263 89.9736 24.3011 90.3908 24.5709 90.8399 24.794 91.2586 25.0788 91.7229 25.3185 92.0442 25.5883 92.4446 26.0645 93.151 26.3343 93.9061 26.7955 94.6293 27.1136 95.1089 27.4467 95.6083 27.8129 96.0726 28.7187 97.3256 30.0059 99.6063 30.5771 100.375 31.0383 100.969 31.4196 101.723 31.8326 102.335 32.1672 102.846 32.5952 103.345 32.9298 103.779 33.2313 104.197 33.4543 104.597 33.7241 105.014L33.9789 105.319C45.6431 120.28 57.6404 130.216 67.7944 136.718L67.7627 136.718C73.1495 140.104 76.0403 141.083 76.0403 141.083 76.708 141.387 76.2166 141.869 75.8986 142.094L15.689 180.989C15.5126 181.1 15.0364 181.438 15.2112 181.838 15.371 182.127 15.9904 181.951 16.1487 181.902 64.4559 164.776 99.5119 150.697 120.949 140.424 142.672 129.992 149.965 124.034 149.203 121.082M20.6296 63.5359C20.5196 63.3105 20.4065 63.0548 20.3116 62.8294 20.2015 62.5569 20.2015 62.2844 20.09 62.0591 19.7087 61.176 19.2957 60.2458 18.8827 59.3947 18.723 59.0583 18.5165 58.3838 18.6597 57.9499 18.6747 57.886 18.8179 57.9347 18.8662 57.9499 18.9928 58.0946 19.0877 58.1585 19.2008 58.3047 19.2957 58.4158 19.3108 58.5437 19.3907 58.6883 19.5655 58.9776 19.8187 59.2821 19.9785 59.5866 20.2965 60.293 20.3598 61.0482 20.6778 61.7378 20.8843 62.1717 21.2174 62.5569 21.4405 63.0061 21.5354 63.2481 21.5987 63.4887 21.6952 63.7612 21.7419 63.9698 21.7268 64.2103 21.7419 64.3702 21.7419 64.5955 21.7268 64.7554 21.6304 64.7554 21.0591 64.7234 20.8843 63.9698 20.6296 63.5359M23.1722 82.1892C23.1406 82.2684 23.1089 82.3338 22.9823 82.3338 22.3463 82.3003 22.1564 81.3534 21.8851 80.889 21.6304 80.551 21.4405 80.1186 21.2174 79.7639 21.0426 79.4929 20.821 79.2189 20.6778 78.9463 20.503 78.5611 20.4548 78.1607 20.2166 77.838 20.1051 77.6614 19.8986 77.5015 19.7871 77.3249 19.454 76.8605 19.136 76.3612 18.8827 75.7674 18.8345 75.5269 18.8029 75.335 18.723 75.093 18.6114 74.7413 18.4532 74.3393 18.3266 73.9541 18.2784 73.7456 18.2301 73.3756 18.2784 73.2477 18.2949 73.1838 18.3266 73.1351 18.3733 73.1518 18.8345 73.2477 19.3424 74.452 19.5655 74.8692 19.8353 75.3503 20.2483 75.7202 20.503 76.2165 20.6778 76.6824 20.7411 77.2275 20.9958 77.6614 21.1707 77.9826 21.4721 78.2567 21.6786 78.5779 21.9484 78.9616 22.1247 79.5234 22.3463 79.9573 22.5528 80.4719 22.9024 80.8723 23.1089 81.3701 23.1888 81.5939 23.2355 81.9639 23.1722 82.1892M36.6963 79.4274C36.41 79.3787 36.2502 79.2036 36.0603 79.0575 35.5674 78.689 35.1545 78.08 35.1379 77.2275 35.1379 77.1163 35.1545 77.0844 35.2178 77.0844 35.8207 77.0844 36.4416 77.9994 36.6798 78.4485 36.728 78.6084 36.8862 78.9463 36.8546 79.1717 36.8546 79.3315 36.7913 79.3955 36.6963 79.4274M40.7477 79.5888C40.3498 79.7167 39.3972 78.6084 39.1274 78.1607 38.6029 77.4056 38.1101 76.5713 37.5539 75.8314 37.0611 75.1249 36.52 74.6606 36.3783 73.505 36.3783 73.3604 36.2834 72.9904 36.3783 72.9904 36.9179 73.0391 37.4424 74.0013 37.6971 74.3865 37.9036 74.6606 38.1252 74.9164 38.3316 75.1904 38.5547 75.6076 38.6979 76.1054 38.9677 76.4906 39.3023 76.9717 39.7137 77.3888 40.08 77.8715 40.2714 78.1272 40.5261 78.3526 40.6362 78.689 40.716 78.8824 40.8909 79.5234 40.7477 79.5888M54.9546 87.5331C54.3984 87.597 53.7156 86.7475 53.4443 86.3303 53.3494 86.2177 53.0314 85.5432 53.1263 85.4473 53.2379 85.3346 53.889 85.56 54.0804 85.7046 54.5084 86.0578 54.8747 86.5389 55.0962 87.3884 55.0962 87.5011 55.0028 87.5331 54.9546 87.5331" fill="#005D63" transform="matrix(1.0023 0 0 1 27 9)"/><path d="M380.056 168.337 340.806 85.8142 301.762 168.337C295.945 179.621 289.478 179.879 289.478 179.879L288.922 180.488 315.619 180.488 314.983 179.879C314.983 179.879 307.53 178.387 312.265 168.337L319.257 153.777 352.706 153.777 359.477 168.337C364.212 178.387 356.759 179.879 356.759 179.879L356.171 180.488 392.943 180.488 392.307 179.879C392.307 179.879 385.538 179.83 380.056 168.337L380.056 168.337ZM322.929 146.106 336.704 116.859 349.259 146.106 322.929 146.106ZM255.043 171.982C235.831 171.982 222.593 159.252 222.593 136.057 222.593 112.846 235.464 97.7245 255.742 97.7245 276.765 97.7245 284.346 114.242 284.346 114.242L284.869 114.676 284.869 95.1409C284.869 95.1409 272.267 88.9292 254.295 88.9292 221.91 88.9292 201.569 109.122 201.569 136.17 201.569 157.952 218.35 181.998 253.008 181.998 266.055 181.998 281.277 176.78 281.277 176.78L288.286 152.59 287.506 153.12C287.506 153.12 276.16 171.982 255.043 171.982L255.043 171.982ZM724.251 90.374 724.887 90.9678C724.887 90.9678 732.753 93.2134 726.809 102.557 723.918 107.115 715.129 119.813 707.121 132.108 699.064 119.813 690.42 107.034 687.495 102.493 681.585 93.119 689.498 90.9678 689.498 90.9678L690.102 90.374 653.314 90.374 653.902 90.9678C653.902 90.9678 659.226 91.8828 666.203 102.493 669.142 106.987 684.063 128.048 692.104 140.358L692.104 168.385C692.104 179.028 686.144 179.943 686.144 179.943L685.525 180.536 717.465 180.536 716.829 179.943C716.829 179.943 710.886 179.028 710.886 168.385 710.886 163.891 710.84 152.639 710.84 140.358 718.881 128.048 733.817 107.068 736.789 102.557 743.701 91.9467 751.631 90.9678 751.631 90.9678L752.267 90.374 724.251 90.374ZM661.244 168.337 621.993 85.8142 582.949 168.337C577.135 179.621 570.697 179.879 570.697 179.879L570.078 180.488 596.743 180.488 596.186 179.879C596.186 179.879 588.734 178.387 593.438 168.337L600.461 153.777 633.912 153.777 640.664 168.337C645.448 178.387 637.964 179.879 637.964 179.879L637.361 180.488 674.13 180.488 673.494 179.879C673.494 179.879 666.726 179.83 661.244 168.337L661.244 168.337ZM604.116 146.106 617.894 116.859 630.464 146.106 604.116 146.106ZM392.833 90.374C382.327 90.374 380.835 89.3463 380.835 89.3463L380.786 107.308 381.422 106.827C381.422 106.827 386.221 99.0749 396.709 99.0749L411.71 99.0749 411.71 168.385C411.71 179.028 405.767 179.943 405.767 179.943L405.115 180.536 437.072 180.536 436.452 179.943C436.452 179.943 430.493 179.028 430.493 168.385L430.588 99.0749 445.208 99.0749C455.743 99.0749 460.797 106.827 460.797 106.827L461.401 107.308 461.431 89.3463C461.431 89.3463 459.939 90.374 449.419 90.374L392.833 90.374ZM560.4 168.385C560.4 157.759 560.385 112.975 560.385 102.348 560.385 91.7062 566.345 90.951 566.345 90.951L566.947 90.3573 535.022 90.3573 535.595 90.951C535.595 90.951 541.569 91.7062 541.569 102.348 541.569 112.975 541.617 128.287 541.617 128.287L497.713 128.287 497.713 102.348C497.713 91.7062 503.719 90.9678 503.719 90.9678L504.273 90.374 472.365 90.374 473.001 90.9678C473.001 90.9678 478.96 91.7062 478.96 102.348L478.96 168.385C478.96 179.028 473.001 179.943 473.001 179.943L472.365 180.536 504.273 180.536 503.719 179.943C503.719 179.943 497.713 179.028 497.713 168.385L497.713 137.117 541.617 137.117 541.617 168.385C541.617 179.028 535.691 179.943 535.691 179.943L535.072 180.536 566.996 180.536 566.391 179.943C566.391 179.943 560.4 179.028 560.4 168.385L560.4 168.385Z" fill="#005D63" transform="matrix(1.0023 0 0 1 27 9)"/></g></g></g></g></svg>